<svg width="30" height="37" viewBox="0 0 30 37" fill="none" xmlns="http://www.w3.org/2000/svg">
<path d="M0.0175343 19.7417C-0.292502 14.2684 3.53836 8.68182 9.17168 8.68182C10.4689 8.68182 11.0572 8.98901 12.4701 9.43676C13.2265 9.67649 14.5084 10.3427 15.2497 10.3427C15.9909 10.3427 16.8804 9.85198 18.0802 9.40379C19.7823 8.76799 20.789 8.69998 21.7724 8.68182C25.0709 8.68182 27.4925 10.0863 29.0364 12.2678C26.488 13.9569 25.145 16.0047 25.0709 19.3265C25.0709 22.3463 26.961 25.2905 30 26.6117C29.2588 29.7824 25.2562 36.3127 21.9577 36.3127C20.8251 36.2467 20.129 36.0666 18.8075 35.5577C17.8228 35.1181 16.5098 34.8028 15.6573 34.8028C14.7679 34.765 13.771 35.0586 12.5257 35.5577C11.4694 35.981 10.8401 36.2213 9.394 36.3127C6.65149 36.486 0.567046 29.4427 0.0175343 19.7417Z" fill="#FBF9FC"/>
<path d="M17.0286 2.79328C15.4988 4.4713 14.9161 6.68123 15.0273 8.68182C17.5475 8.49308 19.2893 7.43617 20.883 5.47332C22.4766 3.51048 22.4883 2.08417 22.4766 0C20.6217 0.307416 18.474 1.20791 17.0286 2.79328Z" fill="#FBF9FC"/>
</svg>
