<svg width="32" height="37" viewBox="0 0 32 37" fill="none" xmlns="http://www.w3.org/2000/svg">
<path d="M0.0187033 20.1136C-0.312002 14.5372 3.77425 8.84539 9.78313 8.84539C11.1668 8.84539 11.7943 9.15837 13.3014 9.61456C14.1083 9.8588 15.4757 10.5376 16.2663 10.5376C17.0569 10.5376 18.0057 10.0376 19.2855 9.58097C21.1011 8.93318 22.1749 8.8639 23.2239 8.84539C26.7423 8.84539 29.3253 10.2763 30.9722 12.4989C28.2539 14.2198 26.8213 16.3063 26.7423 19.6906C26.7423 22.7673 28.7584 25.767 32 27.113C31.2094 30.3435 26.9399 36.9968 23.4216 36.9968C22.2135 36.9296 21.471 36.7461 20.0614 36.2276C19.011 35.7797 17.6104 35.4585 16.7012 35.4585C15.7524 35.42 14.689 35.7192 13.3607 36.2276C12.2341 36.6589 11.5628 36.9037 10.0203 36.9968C7.09492 37.1734 0.604849 29.9974 0.0187033 20.1136Z" fill="url(#paint0_linear_1111_214)"/>
<path d="M18.1638 2.84591C16.532 4.55554 15.9105 6.80711 16.0291 8.84539C18.7173 8.6531 20.5753 7.57627 22.2752 5.57644C23.975 3.57661 23.9875 2.12343 23.975 0C21.9965 0.313208 19.7056 1.23066 18.1638 2.84591Z" fill="url(#paint1_linear_1111_214)"/>
<defs>
<linearGradient id="paint0_linear_1111_214" x1="27.04" y1="4.995" x2="2.56008" y2="29.3992" gradientUnits="userSpaceOnUse">
<stop stop-color="#eb3850"/>
<stop offset="1" stop-color="#eb3850"/>
</linearGradient>
<linearGradient id="paint1_linear_1111_214" x1="27.04" y1="4.995" x2="2.56008" y2="29.3992" gradientUnits="userSpaceOnUse">
<stop stop-color="#eb3850"/>
<stop offset="1" stop-color="#eb3850"/>
</linearGradient>
</defs>
</svg>
