<svg width="270" height="327" viewBox="0 0 270 327" fill="none" xmlns="http://www.w3.org/2000/svg">
<g filter="url(#filter0_dd_1609_7)">
<path fill-rule="evenodd" clip-rule="evenodd" d="M253.999 29.7518C253.999 28.9353 253.501 26.8676 251.897 24.0861C250.352 21.4056 247.925 18.3213 244.454 15.4691C237.566 9.80888 226.438 4.95755 209.626 6.19414C180.237 8.35583 156.469 18.6883 139.21 32.5915C156.661 48.2321 167.028 67.5541 168.954 85.7179C171.167 81.852 173.915 78.2311 177.054 75.0127C185.494 66.3576 197.077 60.2874 209.406 60.2874H253.999V29.7518ZM169.282 102.617C170.385 94.3383 174.809 85.9086 181.35 79.2017C188.934 71.4242 199.048 66.2874 209.406 66.2874H256.999H259.999V63.2874V29.7518C259.999 27.4243 258.934 24.2787 257.095 21.0895C255.199 17.7992 252.306 14.1553 248.263 10.8336C240.125 4.14589 227.457 -1.13357 209.186 0.210303C178.26 2.48503 152.938 13.5659 134.561 28.6486C116.258 13.9594 91.2488 3.21311 60.8141 0.978979C42.5448 -0.362122 29.8768 4.9063 21.7384 11.5809C17.696 14.8963 14.8025 18.5333 12.9052 21.8179C11.0664 25.0012 10 28.1426 10 30.4684V63.9383V66.9383H13H60.5944C70.9547 66.9383 81.0697 72.0659 88.654 79.8276C95.198 86.5247 99.622 94.9417 100.722 103.205V291.05C100.722 295.288 101.681 299.155 104.355 301.946C104.927 302.543 105.554 303.066 106.23 303.519C108.782 305.333 112.085 306.108 115.888 306.108H154.383C159.041 306.108 162.948 304.945 165.646 302.135C168.322 299.348 169.282 295.486 169.282 291.254V102.617ZM100.949 86.15C98.752 82.3548 96.0382 78.7995 92.9454 75.6343C84.5041 66.9955 72.9216 60.9383 60.5944 60.9383H16V30.4684C16 29.6565 16.4974 27.5948 18.1008 24.819C19.6456 22.1446 22.0726 19.0666 25.5433 16.2202C32.4313 10.5711 43.5605 5.72859 60.3748 6.96288C89.2943 9.08578 112.77 19.1035 129.957 32.6419C112.683 48.4777 102.558 67.9452 100.949 86.15ZM109.632 298.573C109.377 298.385 109.152 298.186 108.953 297.98C107.779 296.757 106.989 294.693 106.989 291.254V107.17C106.989 105.72 106.898 104.267 106.722 102.818V91.2337C106.722 73.4099 116.445 52.9521 134.605 36.5222C153.276 53.0374 163.282 73.7878 163.282 91.8298V102.23C163.104 103.686 163.013 105.146 163.013 106.604V291.05C163.013 294.497 162.222 296.568 161.047 297.795C159.895 298.997 157.854 299.927 154.114 299.927H115.62C112.74 299.927 110.867 299.375 109.632 298.573Z" fill="white"/>
</g>
<defs>
<filter id="filter0_dd_1609_7" x="0" y="0" width="269.999" height="326.108" filterUnits="userSpaceOnUse" color-interpolation-filters="sRGB">
<feFlood flood-opacity="0" result="BackgroundImageFix"/>
<feColorMatrix in="SourceAlpha" type="matrix" values="0 0 0 0 0 0 0 0 0 0 0 0 0 0 0 0 0 0 127 0" result="hardAlpha"/>
<feOffset dy="10"/>
<feGaussianBlur stdDeviation="5"/>
<feComposite in2="hardAlpha" operator="out"/>
<feColorMatrix type="matrix" values="0 0 0 0 0.65098 0 0 0 0 0.65098 0 0 0 0 0.654902 0 0 0 0.3 0"/>
<feBlend mode="normal" in2="BackgroundImageFix" result="effect1_dropShadow_1609_7"/>
<feColorMatrix in="SourceAlpha" type="matrix" values="0 0 0 0 0 0 0 0 0 0 0 0 0 0 0 0 0 0 127 0" result="hardAlpha"/>
<feOffset dy="4"/>
<feGaussianBlur stdDeviation="2"/>
<feComposite in2="hardAlpha" operator="out"/>
<feColorMatrix type="matrix" values="0 0 0 0 0 0 0 0 0 0 0 0 0 0 0 0 0 0 0.25 0"/>
<feBlend mode="normal" in2="effect1_dropShadow_1609_7" result="effect2_dropShadow_1609_7"/>
<feBlend mode="normal" in="SourceGraphic" in2="effect2_dropShadow_1609_7" result="shape"/>
</filter>
</defs>
</svg>
