<svg width="50" height="50" viewBox="0 0 50 50" fill="none" xmlns="http://www.w3.org/2000/svg">
<path d="M43.4167 9.60419C42.3526 8.53961 41.0892 7.69512 39.6986 7.11894C38.3081 6.54277 36.8177 6.24622 35.3125 6.24622C33.8073 6.24622 32.3169 6.54277 30.9263 7.11894C29.5358 7.69512 28.2724 8.53961 27.2083 9.60419L25 11.8125L22.7917 9.60419C20.6423 7.45483 17.7271 6.24733 14.6875 6.24733C11.6478 6.24733 8.73269 7.45483 6.58333 9.60419C4.43397 11.7535 3.22647 14.6687 3.22647 17.7084C3.22647 20.748 4.43397 23.6632 6.58333 25.8125L8.79166 28.0208L25 44.2292L41.2083 28.0208L43.4167 25.8125C44.4812 24.7484 45.3257 23.485 45.9019 22.0945C46.4781 20.704 46.7746 19.2135 46.7746 17.7084C46.7746 16.2032 46.4781 14.7127 45.9019 13.3222C45.3257 11.9317 44.4812 10.6683 43.4167 9.60419V9.60419Z" stroke="url(#paint0_linear_1319_87)" stroke-width="3" stroke-linecap="round" stroke-linejoin="round"/>
<defs>
<linearGradient id="paint0_linear_1319_87" x1="40.0247" y1="11.3739" x2="15.8404" y2="43.3349" gradientUnits="userSpaceOnUse">
<stop stop-color="#EB3850"/>
<stop offset="1" stop-color="#eb3850"/>
</linearGradient>
</defs>
</svg>
