<svg width="41" height="49" viewBox="0 0 41 49" fill="none" xmlns="http://www.w3.org/2000/svg">
<path fill-rule="evenodd" clip-rule="evenodd" d="M38.0011 5.09506C37.9931 5.05718 37.9492 4.84808 37.7499 4.5079C37.5417 4.15236 37.206 3.72944 36.7165 3.33355C35.7549 2.55581 34.1559 1.84786 31.6622 2.02837C27.4575 2.33275 24.0404 3.7086 21.4929 5.57309C23.6149 7.58942 25.0226 9.95618 25.5904 12.3072C25.7748 12.0801 25.9704 11.8623 26.1753 11.6555C27.5676 10.2504 29.5004 9.24102 31.59 9.24102H38.0026V5.10058C38.0026 5.10248 38.0022 5.1006 38.0011 5.09506ZM15.2352 47.521C15.7472 47.8725 16.3759 48.0013 17.0248 48.0013H23.0205C23.8233 48.0013 24.5951 47.8042 25.1534 47.232C25.7072 46.6643 25.8737 45.908 25.8737 45.1843V16.3064C26.035 15.1887 26.6513 14.0166 27.596 13.0632C28.6997 11.9494 30.1461 11.241 31.59 11.241H39.0026H40.0026V10.241V5.10058C40.0026 4.60377 39.7834 4.02236 39.4757 3.49703C39.1478 2.93735 38.6548 2.32895 37.9742 1.77848C36.5956 0.663489 34.4883 -0.181436 31.5178 0.033591C26.7928 0.375629 22.8556 1.99939 19.9294 4.25119C17.0182 2.06057 13.1324 0.487014 8.48489 0.151257C5.51494 -0.0633063 3.40792 0.779746 2.02923 1.89255C1.34855 2.44197 0.855414 3.04929 0.527417 3.60813C0.21963 4.13253 0 4.71343 0 5.21028V10.3406V11.3406H1H8.41284C9.8575 11.3406 11.3042 12.048 12.4077 13.1594C13.3529 14.1114 13.9688 15.2813 14.1297 16.3964V45.1532C14.1297 45.8776 14.2958 46.6345 14.8492 47.2028C14.9687 47.3255 15.0979 47.431 15.2352 47.521ZM14.3784 12.3598C14.2038 12.1478 14.0195 11.9442 13.8269 11.7502C12.4344 10.3478 10.5018 9.34063 8.41284 9.34063H2V5.21028C2 5.21237 2.00042 5.21041 2.00167 5.20452C2.0099 5.16585 2.05413 4.95808 2.25227 4.62049C2.46038 4.26591 2.79591 3.84393 3.2854 3.44884C4.24706 2.67264 5.84646 1.96586 8.34078 2.14606C12.4752 2.44475 15.8477 3.77703 18.381 5.58995C16.2873 7.62531 14.9113 10.0045 14.3784 12.3598ZM16.3488 45.8579C16.3376 45.8491 16.3293 45.8414 16.3234 45.8354C16.2777 45.7885 16.1716 45.6363 16.1716 45.1843V16.9673C16.1716 16.7324 16.1573 16.4978 16.1297 16.2644V14.5247C16.1297 12.0892 17.4434 9.23489 19.9441 6.86328C22.5199 9.25113 23.8737 12.1494 23.8737 14.6159V16.1743C23.8459 16.4088 23.8315 16.6446 23.8315 16.8808V45.1532C23.8315 45.6068 23.7251 45.7602 23.6789 45.8076C23.6376 45.8501 23.4831 45.9737 22.9783 45.9737H16.9828C16.6194 45.9737 16.4376 45.9097 16.3488 45.8579Z" fill="url(#paint0_linear_195175_3824)"/>
<defs>
<linearGradient id="paint0_linear_195175_3824" x1="33.8022" y1="6.48017" x2="2.06914" y2="36.9629" gradientUnits="userSpaceOnUse">
<stop stop-color="#EB3850"/>
<stop offset="1" stop-color="#CB162E"/>
</linearGradient>
</defs>
</svg>
